# xmcd
#
# Track frame offsets:
#	150
#	13341
#	28549
#	43943
#	55949
#
# Disc length: 963 seconds
#
# Revision: 1
# Processed by: cddbd v1.5.2PL0 Copyright (c) Steve Scherf et al.
# Submitted via: audiograbber 1.83.01
#
DISCID=3e03c105
DTITLE=Mara-Lena - Du wirst es nie kapier'n
DYEAR=1996
DGENRE=Country
TTITLE0=Honky Tonk Baby
TTITLE1=Du wirst es nie kapier'n
TTITLE2=Ist der Teufel noch ledig
TTITLE3=Hey Du Typ
TTITLE4=Wir brauchen Dich
EXTD=CMK- Records 
EXTT0=
EXTT1=
EXTT2=
EXTT3=
EXTT4=
PLAYORDER=
